<svg id="smanim-canvas" xmlns="http://www.w3.org/2000/svg" viewBox="142.652861763465 201.6 737.69427647307 172.63394740542824"><rect id="id-53693272" x="149.846" y="208.8" width="723.308" height="158.248" fill="transparent"/><path stroke-dasharray="none" id="id-52090056" d="M 313.69 216.0 C 265.736 216.0 217.783 216.0 169.829 216.0 C 169.829 264.0 169.829 312.0 169.829 360.0 C 217.783 360.0 265.736 360.0 313.69 360.0 C 313.69 312.0 313.69 264.0 313.69 216.0 Z " fill-opacity="0.25" fill="#444444"/><path stroke-dasharray="none" id="id-47756976" d="M 493.517 216.0 C 445.563 216.0 397.61 216.0 349.656 216.0 C 349.656 264.0 349.656 312.0 349.656 360.0 C 397.61 360.0 445.563 360.0 493.517 360.0 C 493.517 312.0 493.517 264.0 493.517 216.0 Z " fill-opacity="0.5" fill="#444444"/><path stroke-dasharray="none" id="id-52034384" d="M 673.344 216.0 C 625.39 216.0 577.437 216.0 529.483 216.0 C 529.483 264.0 529.483 312.0 529.483 360.0 C 577.437 360.0 625.39 360.0 673.344 360.0 C 673.344 312.0 673.344 264.0 673.344 216.0 Z " fill-opacity="0.75" fill="#444444"/><path stroke-dasharray="none" id="id-50803840" d="M 853.171 216.0 C 805.217 216.0 757.264 216.0 709.31 216.0 C 709.31 264.0 709.31 312.0 709.31 360.0 C 757.264 360.0 805.217 360.0 853.171 360.0 C 853.171 312.0 853.171 264.0 853.171 216.0 Z " fill-opacity="1.0" fill="#444444"/><path stroke="#888888" stroke-dasharray="none" stroke-opacity="1.0" stroke-width="4" id="id-52068616" d="M 151.846 208.8 C 151.846 261.6 151.846 314.4 151.846 367.2" fill-opacity="none" fill="none"/><path stroke="#888888" stroke-dasharray="none" stroke-opacity="1.0" stroke-width="4" id="id-45878768" d="M 331.673 208.8 C 331.673 261.6 331.673 314.4 331.673 367.2" fill-opacity="none" fill="none"/><path stroke="#888888" stroke-dasharray="none" stroke-opacity="1.0" stroke-width="4" id="id-50810472" d="M 511.5 208.8 C 511.5 261.6 511.5 314.4 511.5 367.2" fill-opacity="none" fill="none"/><path stroke="#888888" stroke-dasharray="none" stroke-opacity="1.0" stroke-width="4" id="id-50805048" d="M 691.327 208.8 C 691.327 261.6 691.327 314.4 691.327 367.2" fill-opacity="none" fill="none"/><path stroke="#888888" stroke-dasharray="none" stroke-opacity="1.0" stroke-width="4" id="id-51313944" d="M 871.154 208.8 C 871.154 261.6 871.154 314.4 871.154 367.2" fill-opacity="none" fill="none"/><path stroke="#888888" stroke-dasharray="none" stroke-opacity="1.0" stroke-width="4" id="id-42524152" d="M 149.846 208.8 C 390.949 208.8 632.051 208.8 873.154 208.8" fill-opacity="none" fill="none"/><path stroke="#888888" stroke-dasharray="none" stroke-opacity="1.0" stroke-width="4" id="id-50767400" d="M 149.846 367.2 C 390.949 367.2 632.051 367.2 873.154 367.2" fill-opacity="none" fill="none"/></svg>