<svg id="smanim-canvas" xmlns="http://www.w3.org/2000/svg" viewBox="426.6553754455412 203.0484475362175 169.72298202879438 169.7398361115984"><path stroke-dasharray="none" id="id-4375690256" d="M 445.324 360.0 C 445.324 359.584 445.278 359.168 445.189 358.762 C 445.1 358.356 444.966 357.959 444.792 357.581 C 444.617 357.204 444.402 356.845 444.15 356.514 C 443.899 356.183 443.611 355.879 443.295 355.61 C 442.978 355.341 442.632 355.106 442.265 354.911 C 441.897 354.716 441.509 354.561 441.109 354.45 C 440.708 354.339 440.296 354.271 439.881 354.248 C 439.466 354.226 439.048 354.249 438.638 354.316 C 438.228 354.383 437.825 354.495 437.439 354.649 C 437.053 354.803 436.684 354.999 436.34 355.233 C 435.996 355.466 435.677 355.737 435.391 356.039 C 435.106 356.341 434.853 356.674 434.638 357.03 C 434.424 357.387 434.249 357.767 434.116 358.161 C 433.983 358.555 433.893 358.964 433.848 359.377 C 433.804 359.791 433.804 360.209 433.848 360.623 C 433.893 361.036 433.983 361.445 434.116 361.839 C 434.249 362.233 434.424 362.613 434.638 362.97 C 434.853 363.326 435.106 363.659 435.391 363.961 C 435.677 364.263 435.996 364.534 436.34 364.767 C 436.684 365.001 437.053 365.197 437.439 365.351 C 437.825 365.505 438.228 365.617 438.638 365.684 C 439.048 365.751 439.466 365.774 439.881 365.752 C 440.296 365.729 440.708 365.661 441.109 365.55 C 441.509 365.439 441.897 365.284 442.265 365.089 C 442.632 364.894 442.978 364.659 443.295 364.39 C 443.611 364.121 443.899 363.817 444.15 363.486 C 444.402 363.155 444.617 362.796 444.792 362.419 C 444.966 362.041 445.1 361.644 445.189 361.238 C 445.278 360.832 445.324 360.416 445.324 360.0 Z " fill-opacity="1.0" fill="#58C4DD"/><path stroke-dasharray="none" id="id-4377538432" d="M 589.185 216.0 C 589.185 215.584 589.14 215.168 589.051 214.762 C 588.961 214.356 588.828 213.959 588.653 213.581 C 588.479 213.204 588.263 212.845 588.012 212.514 C 587.76 212.183 587.473 211.879 587.156 211.61 C 586.839 211.341 586.493 211.106 586.126 210.911 C 585.759 210.716 585.371 210.561 584.97 210.45 C 584.57 210.339 584.157 210.271 583.742 210.248 C 583.327 210.226 582.91 210.249 582.5 210.316 C 582.09 210.383 581.687 210.495 581.301 210.649 C 580.915 210.803 580.545 210.999 580.201 211.233 C 579.858 211.466 579.539 211.737 579.253 212.039 C 578.967 212.341 578.714 212.674 578.5 213.03 C 578.286 213.387 578.11 213.767 577.978 214.161 C 577.845 214.555 577.755 214.964 577.71 215.377 C 577.665 215.791 577.665 216.209 577.71 216.623 C 577.755 217.036 577.845 217.445 577.978 217.839 C 578.11 218.233 578.286 218.613 578.5 218.97 C 578.714 219.326 578.967 219.659 579.253 219.961 C 579.539 220.263 579.858 220.534 580.201 220.767 C 580.545 221.001 580.915 221.197 581.301 221.351 C 581.687 221.505 582.09 221.617 582.5 221.684 C 582.91 221.751 583.327 221.774 583.742 221.752 C 584.157 221.729 584.57 221.661 584.97 221.55 C 585.371 221.439 585.759 221.284 586.126 221.089 C 586.493 220.894 586.839 220.659 587.156 220.39 C 587.473 220.121 587.76 219.817 588.012 219.486 C 588.263 219.155 588.479 218.796 588.653 218.419 C 588.828 218.041 588.961 217.644 589.051 217.238 C 589.14 216.832 589.185 216.416 589.185 216.0 Z " fill-opacity="1.0" fill="#58C4DD"/><path stroke="#FC6255" stroke-dasharray="none" stroke-opacity="1.0" stroke-width="4.0" id="id-4377538384" d="M 443.624 355.958 C 488.876 310.662 534.129 265.366 579.381 220.07" fill-opacity="none" fill="none"/></svg>