<svg id="smanim-canvas" xmlns="http://www.w3.org/2000/svg" viewBox="468.35837960858134 244.8 86.31697370271411 86.31697370271411"><path stroke-dasharray="none" id="id-47529456" d="M 547.482 252.0 C 523.505 252.0 499.528 252.0 475.551 252.0 C 475.551 276.0 475.551 300.0 475.551 324.0 C 499.528 324.0 523.505 324.0 547.482 324.0 C 547.482 300.0 547.482 276.0 547.482 252.0 Z " fill-opacity="1.0" fill="#888888"/><path stroke-dasharray="none" id="id-53059896" d="M 517.254 288.0 C 517.254 287.584 517.209 287.168 517.12 286.762 C 517.031 286.356 516.897 285.959 516.723 285.581 C 516.548 285.204 516.333 284.845 516.081 284.514 C 515.83 284.183 515.542 283.879 515.225 283.61 C 514.909 283.341 514.563 283.106 514.195 282.911 C 513.828 282.716 513.44 282.561 513.039 282.45 C 512.639 282.339 512.227 282.271 511.812 282.248 C 511.397 282.226 510.979 282.249 510.569 282.316 C 510.159 282.383 509.756 282.495 509.37 282.649 C 508.984 282.803 508.615 282.999 508.271 283.233 C 507.927 283.466 507.608 283.737 507.322 284.039 C 507.036 284.341 506.784 284.674 506.569 285.03 C 506.355 285.387 506.179 285.767 506.047 286.161 C 505.914 286.555 505.824 286.964 505.779 287.377 C 505.734 287.791 505.734 288.209 505.779 288.623 C 505.824 289.036 505.914 289.445 506.047 289.839 C 506.179 290.233 506.355 290.613 506.569 290.97 C 506.784 291.326 507.036 291.659 507.322 291.961 C 507.608 292.263 507.927 292.534 508.271 292.767 C 508.615 293.001 508.984 293.197 509.37 293.351 C 509.756 293.505 510.159 293.617 510.569 293.684 C 510.979 293.751 511.397 293.774 511.812 293.752 C 512.227 293.729 512.639 293.661 513.039 293.55 C 513.44 293.439 513.828 293.284 514.195 293.089 C 514.563 292.894 514.909 292.659 515.225 292.39 C 515.542 292.121 515.83 291.817 516.081 291.486 C 516.333 291.155 516.548 290.796 516.723 290.419 C 516.897 290.041 517.031 289.644 517.12 289.238 C 517.209 288.832 517.254 288.416 517.254 288.0 Z " fill-opacity="1.0" fill="#444444"/></svg>