<svg id="smanim-canvas" xmlns="http://www.w3.org/2000/svg" viewBox="64.8 37.055485848936385 141.89906593255176 78.14451415106362"><path stroke-dasharray="none" id="id-4367760880" d="M 196.68 98.34 C 161.56 80.78 126.44 63.22 91.32 45.66 C 91.04 45.52 90.756 45.39 90.468 45.271 C 90.18 45.151 89.887 45.041 89.591 44.942 C 89.295 44.843 88.996 44.754 88.693 44.676 C 88.391 44.598 88.086 44.53 87.779 44.473 C 87.472 44.417 87.163 44.371 86.853 44.335 C 86.543 44.3 86.232 44.276 85.92 44.263 C 85.608 44.249 85.296 44.247 84.983 44.255 C 84.671 44.264 84.36 44.284 84.049 44.314 C 83.738 44.344 83.429 44.386 83.121 44.438 C 82.813 44.49 82.507 44.553 82.204 44.626 C 81.9 44.7 81.6 44.784 81.302 44.879 C 81.005 44.973 80.71 45.079 80.42 45.194 C 80.13 45.309 79.844 45.435 79.563 45.57 C 79.282 45.705 79.005 45.85 78.734 46.005 C 78.463 46.16 78.197 46.324 77.937 46.497 C 77.678 46.671 77.424 46.853 77.177 47.044 C 76.93 47.235 76.69 47.435 76.458 47.643 C 76.225 47.851 75.999 48.067 75.781 48.291 C 75.564 48.515 75.354 48.746 75.152 48.984 C 74.951 49.223 74.758 49.468 74.574 49.72 C 74.389 49.972 74.214 50.231 74.048 50.495 C 73.882 50.759 73.725 51.029 73.578 51.305 C 73.43 51.58 73.293 51.86 73.165 52.145 C 73.038 52.43 72.92 52.72 72.813 53.013 C 72.706 53.306 72.609 53.603 72.522 53.903 C 72.436 54.203 72.36 54.506 72.295 54.811 C 72.229 55.116 72.175 55.424 72.131 55.733 C 72.088 56.042 72.055 56.353 72.033 56.664 C 72.011 56.976 72.0 57.288 72.0 57.6 C 72.0 67.2 72.0 76.8 72.0 86.4 C 72.0 86.79 72.011 87.18 72.032 87.569 C 72.053 87.959 72.084 88.348 72.127 88.735 C 72.169 89.123 72.221 89.51 72.285 89.894 C 72.348 90.279 72.421 90.662 72.505 91.043 C 72.589 91.424 72.683 91.803 72.787 92.179 C 72.892 92.554 73.006 92.927 73.131 93.297 C 73.255 93.666 73.39 94.033 73.534 94.395 C 73.678 94.757 73.833 95.116 73.996 95.47 C 74.16 95.824 74.333 96.173 74.516 96.518 C 74.699 96.862 74.891 97.202 75.092 97.536 C 75.293 97.87 75.503 98.199 75.722 98.522 C 75.941 98.844 76.168 99.161 76.404 99.472 C 76.64 99.782 76.885 100.086 77.137 100.384 C 77.39 100.681 77.65 100.971 77.918 101.254 C 78.187 101.537 78.463 101.813 78.746 102.082 C 79.029 102.35 79.319 102.61 79.616 102.863 C 79.914 103.115 80.218 103.36 80.528 103.596 C 80.839 103.832 81.156 104.059 81.478 104.278 C 81.801 104.497 82.13 104.707 82.464 104.908 C 82.798 105.109 83.138 105.301 83.482 105.484 C 83.827 105.667 84.176 105.84 84.53 106.004 C 84.884 106.167 85.243 106.322 85.605 106.466 C 85.967 106.61 86.334 106.745 86.703 106.869 C 87.073 106.994 87.446 107.108 87.821 107.213 C 88.197 107.317 88.576 107.411 88.957 107.495 C 89.338 107.579 89.721 107.652 90.106 107.715 C 90.49 107.779 90.877 107.831 91.265 107.873 C 91.652 107.916 92.041 107.947 92.431 107.968 C 92.82 107.989 93.21 108.0 93.6 108.0 C 127.2 108.0 160.8 108.0 194.4 108.0 C 194.557 108.0 194.714 107.993 194.87 107.978 C 195.026 107.964 195.182 107.942 195.336 107.913 C 195.491 107.884 195.644 107.849 195.795 107.806 C 195.946 107.763 196.095 107.713 196.241 107.656 C 196.387 107.599 196.531 107.536 196.672 107.466 C 196.812 107.396 196.949 107.32 197.083 107.237 C 197.216 107.155 197.346 107.066 197.471 106.971 C 197.597 106.877 197.717 106.776 197.834 106.671 C 197.95 106.565 198.061 106.454 198.166 106.338 C 198.272 106.222 198.373 106.101 198.467 105.976 C 198.562 105.851 198.651 105.721 198.734 105.588 C 198.816 105.455 198.893 105.317 198.963 105.177 C 199.033 105.036 199.097 104.893 199.153 104.746 C 199.21 104.6 199.26 104.451 199.303 104.3 C 199.346 104.149 199.382 103.996 199.411 103.842 C 199.44 103.688 199.462 103.532 199.477 103.376 C 199.492 103.22 199.499 103.063 199.499 102.906 C 199.499 102.749 199.492 102.592 199.478 102.436 C 199.463 102.279 199.442 102.124 199.413 101.969 C 199.385 101.815 199.349 101.662 199.306 101.511 C 199.263 101.36 199.213 101.211 199.157 101.065 C 199.1 100.918 199.037 100.774 198.967 100.634 C 198.898 100.493 198.821 100.356 198.739 100.222 C 198.656 100.089 198.568 99.959 198.473 99.834 C 198.379 99.708 198.279 99.587 198.173 99.471 C 198.068 99.355 197.957 99.244 197.841 99.138 C 197.725 99.032 197.604 98.931 197.479 98.837 C 197.354 98.742 197.225 98.653 197.091 98.57 C 196.958 98.487 196.821 98.41 196.68 98.34 Z " fill-opacity="1.0" fill="#58C4DD"/></svg>