<svg id="smanim-canvas" xmlns="http://www.w3.org/2000/svg" viewBox="450.6750564177554 208.8 121.96613328833375 158.24778512164255"><path stroke-dasharray="none" id="id-47440432" d="M 547.465 216.0 C 523.488 216.0 499.512 216.0 475.535 216.0 C 475.535 264.0 475.535 312.0 475.535 360.0 C 499.512 360.0 523.488 360.0 547.465 360.0 C 547.465 312.0 547.465 264.0 547.465 216.0 Z " fill-opacity="1.0" fill="#888888"/><path stroke-dasharray="none" id="id-39899472" d="M 565.448 254.107 C 565.448 251.507 565.024 248.907 564.187 246.368 C 563.349 243.829 562.098 241.351 560.462 238.991 C 558.826 236.632 556.806 234.391 554.448 232.321 C 552.09 230.251 549.395 228.353 546.425 226.669 C 543.456 224.986 540.212 223.519 536.77 222.301 C 533.327 221.083 529.687 220.115 525.933 219.419 C 522.179 218.724 518.311 218.301 514.421 218.16 C 510.53 218.019 506.617 218.161 502.772 218.581 C 498.927 219.002 495.151 219.702 491.532 220.664 C 487.912 221.626 484.45 222.851 481.225 224.31 C 478.0 225.769 475.013 227.462 472.334 229.35 C 469.655 231.238 467.283 233.319 465.274 235.547 C 463.265 237.775 461.62 240.149 460.376 242.612 C 459.132 245.076 458.289 247.63 457.868 250.215 C 457.447 252.8 457.447 255.415 457.868 257.999 C 458.289 260.584 459.132 263.138 460.376 265.602 C 461.62 268.066 463.265 270.439 465.274 272.667 C 467.283 274.895 469.655 276.977 472.334 278.864 C 475.013 280.752 478.0 282.445 481.225 283.904 C 484.45 285.363 487.912 286.588 491.532 287.55 C 495.151 288.513 498.927 289.212 502.772 289.633 C 506.617 290.054 510.53 290.195 514.421 290.054 C 518.311 289.914 522.179 289.491 525.933 288.795 C 529.687 288.099 533.327 287.131 536.77 285.914 C 540.212 284.696 543.456 283.228 546.425 281.545 C 549.395 279.862 552.09 277.963 554.448 275.893 C 556.806 273.824 558.826 271.583 560.462 269.223 C 562.098 266.864 563.349 264.385 564.187 261.846 C 565.024 259.307 565.448 256.707 565.448 254.107 Z " fill-opacity="1.0" fill="#444444"/></svg>