<svg id="smanim-canvas" xmlns="http://www.w3.org/2000/svg" viewBox="432.3761074391787 165.70559420271908 290.028686270775 183.3180763865631"><path stroke-dasharray="none" id="id-46845256" d="M 547.36 208.853 C 547.36 206.253 547.078 203.653 546.519 201.114 C 545.961 198.575 545.127 196.096 544.036 193.737 C 542.945 191.377 541.598 189.136 540.026 187.067 C 538.454 184.997 536.658 183.098 534.678 181.415 C 532.698 179.732 530.536 178.264 528.241 177.046 C 525.946 175.829 523.519 174.861 521.016 174.165 C 518.514 173.469 515.935 173.046 513.342 172.906 C 510.748 172.765 508.139 172.906 505.576 173.327 C 503.013 173.748 500.495 174.447 498.082 175.41 C 495.669 176.372 493.361 177.597 491.211 179.056 C 489.061 180.515 487.07 182.208 485.284 184.096 C 483.498 185.983 481.916 188.065 480.577 190.293 C 479.238 192.521 478.141 194.894 477.312 197.358 C 476.482 199.822 475.921 202.376 475.64 204.961 C 475.359 207.545 475.359 210.16 475.64 212.745 C 475.921 215.33 476.482 217.884 477.312 220.348 C 478.141 222.811 479.238 225.185 480.577 227.413 C 481.916 229.641 483.498 231.722 485.284 233.61 C 487.07 235.498 489.061 237.191 491.211 238.65 C 493.361 240.109 495.669 241.334 498.082 242.296 C 500.495 243.258 503.013 243.958 505.576 244.379 C 508.139 244.799 510.748 244.941 513.342 244.8 C 515.935 244.659 518.514 244.236 521.016 243.541 C 523.519 242.845 525.946 241.877 528.241 240.659 C 530.536 239.441 532.698 237.974 534.678 236.291 C 536.658 234.607 538.454 232.709 540.026 230.639 C 541.598 228.569 542.945 226.328 544.036 223.969 C 545.127 221.609 545.961 219.131 546.519 216.592 C 547.078 214.053 547.36 211.453 547.36 208.853 Z " fill-opacity="1.0" fill="#444444"/><path stroke-dasharray="none" id="id-52977272" d="M 583.431 252.0 C 535.477 252.0 487.523 252.0 439.569 252.0 C 439.569 276.0 439.569 300.0 439.569 324.0 C 487.523 324.0 535.477 324.0 583.431 324.0 C 583.431 300.0 583.431 276.0 583.431 252.0 Z " fill-opacity="1.0" fill="#888888"/><path stroke-dasharray="none" id="id-41796024" d="M 652.918 234.0 C 632.153 270.0 611.389 306.0 590.624 342.0 C 632.153 342.0 673.682 342.0 715.212 342.0 C 694.447 306.0 673.682 270.0 652.918 234.0 Z " fill-opacity="1.0" fill="#888888"/></svg>