<svg id="smanim-canvas" xmlns="http://www.w3.org/2000/svg" viewBox="422.2920400686071 198.68091516807038 178.44965278266264 178.46650686546664"><path stroke-dasharray="none" id="id-50629504" d="M 536.931 211.632 C 503.023 245.574 469.114 279.515 435.206 313.456 C 452.16 330.426 469.114 347.397 486.069 364.368 C 519.977 330.426 553.886 296.485 587.794 262.544 C 570.84 245.574 553.886 228.603 536.931 211.632 Z " fill-opacity="1.0" fill="#888888"/><rect id="id-38474352" x="429.485" y="205.881" width="164.063" height="164.08" fill="transparent"/><path stroke-dasharray="none" id="id-47441064" d="M 593.549 288.0 C 593.549 287.584 593.503 287.168 593.414 286.762 C 593.325 286.356 593.191 285.959 593.017 285.581 C 592.842 285.204 592.627 284.845 592.375 284.514 C 592.124 284.183 591.836 283.879 591.52 283.61 C 591.203 283.341 590.857 283.106 590.49 282.911 C 590.122 282.716 589.734 282.561 589.334 282.45 C 588.933 282.339 588.521 282.271 588.106 282.248 C 587.691 282.226 587.273 282.249 586.863 282.316 C 586.453 282.383 586.05 282.495 585.664 282.649 C 585.278 282.803 584.909 282.999 584.565 283.233 C 584.221 283.466 583.902 283.737 583.616 284.039 C 583.331 284.341 583.078 284.674 582.863 285.03 C 582.649 285.387 582.474 285.767 582.341 286.161 C 582.208 286.555 582.118 286.964 582.073 287.377 C 582.028 287.791 582.028 288.209 582.073 288.623 C 582.118 289.036 582.208 289.445 582.341 289.839 C 582.474 290.233 582.649 290.613 582.863 290.97 C 583.078 291.326 583.331 291.659 583.616 291.961 C 583.902 292.263 584.221 292.534 584.565 292.767 C 584.909 293.001 585.278 293.197 585.664 293.351 C 586.05 293.505 586.453 293.617 586.863 293.684 C 587.273 293.751 587.691 293.774 588.106 293.752 C 588.521 293.729 588.933 293.661 589.334 293.55 C 589.734 293.439 590.122 293.284 590.49 293.089 C 590.857 292.894 591.203 292.659 591.52 292.39 C 591.836 292.121 592.124 291.817 592.375 291.486 C 592.627 291.155 592.842 290.796 593.017 290.419 C 593.191 290.041 593.325 289.644 593.414 289.238 C 593.503 288.832 593.549 288.416 593.549 288.0 Z " fill-opacity="1.0" fill="#FC6255"/><path stroke-dasharray="none" id="id-47720920" d="M 593.549 211.632 C 593.549 211.216 593.503 210.801 593.414 210.394 C 593.325 209.988 593.191 209.591 593.017 209.214 C 592.842 208.836 592.627 208.478 592.375 208.147 C 592.124 207.815 591.836 207.512 591.52 207.242 C 591.203 206.973 590.857 206.738 590.49 206.543 C 590.122 206.349 589.734 206.194 589.334 206.082 C 588.933 205.971 588.521 205.903 588.106 205.881 C 587.691 205.858 587.273 205.881 586.863 205.948 C 586.453 206.016 586.05 206.128 585.664 206.282 C 585.278 206.436 584.909 206.632 584.565 206.865 C 584.221 207.098 583.902 207.369 583.616 207.671 C 583.331 207.973 583.078 208.306 582.863 208.663 C 582.649 209.019 582.474 209.399 582.341 209.793 C 582.208 210.188 582.118 210.596 582.073 211.01 C 582.028 211.423 582.028 211.842 582.073 212.255 C 582.118 212.669 582.208 213.077 582.341 213.472 C 582.474 213.866 582.649 214.246 582.863 214.602 C 583.078 214.959 583.331 215.292 583.616 215.594 C 583.902 215.896 584.221 216.167 584.565 216.4 C 584.909 216.633 585.278 216.829 585.664 216.983 C 586.05 217.137 586.453 217.249 586.863 217.317 C 587.273 217.384 587.691 217.407 588.106 217.384 C 588.521 217.361 588.933 217.294 589.334 217.183 C 589.734 217.071 590.122 216.916 590.49 216.721 C 590.857 216.527 591.203 216.292 591.52 216.023 C 591.836 215.753 592.124 215.449 592.375 215.118 C 592.627 214.787 592.842 214.429 593.017 214.051 C 593.191 213.673 593.325 213.277 593.414 212.871 C 593.503 212.464 593.549 212.048 593.549 211.632 Z " fill-opacity="1.0" fill="#FC6255"/><path stroke-dasharray="none" id="id-45880736" d="M 517.254 211.632 C 517.254 211.216 517.209 210.801 517.12 210.394 C 517.031 209.988 516.897 209.591 516.723 209.214 C 516.548 208.836 516.333 208.478 516.081 208.147 C 515.83 207.815 515.542 207.512 515.225 207.242 C 514.909 206.973 514.563 206.738 514.195 206.543 C 513.828 206.349 513.44 206.194 513.039 206.082 C 512.639 205.971 512.227 205.903 511.812 205.881 C 511.397 205.858 510.979 205.881 510.569 205.948 C 510.159 206.016 509.756 206.128 509.37 206.282 C 508.984 206.436 508.615 206.632 508.271 206.865 C 507.927 207.098 507.608 207.369 507.322 207.671 C 507.036 207.973 506.784 208.306 506.569 208.663 C 506.355 209.019 506.179 209.399 506.047 209.793 C 505.914 210.188 505.824 210.596 505.779 211.01 C 505.734 211.423 505.734 211.842 505.779 212.255 C 505.824 212.669 505.914 213.077 506.047 213.472 C 506.179 213.866 506.355 214.246 506.569 214.602 C 506.784 214.959 507.036 215.292 507.322 215.594 C 507.608 215.896 507.927 216.167 508.271 216.4 C 508.615 216.633 508.984 216.829 509.37 216.983 C 509.756 217.137 510.159 217.249 510.569 217.317 C 510.979 217.384 511.397 217.407 511.812 217.384 C 512.227 217.361 512.639 217.294 513.039 217.183 C 513.44 217.071 513.828 216.916 514.195 216.721 C 514.563 216.527 514.909 216.292 515.225 216.023 C 515.542 215.753 515.83 215.449 516.081 215.118 C 516.333 214.787 516.548 214.429 516.723 214.051 C 516.897 213.673 517.031 213.277 517.12 212.871 C 517.209 212.464 517.254 212.048 517.254 211.632 Z " fill-opacity="1.0" fill="#FC6255"/><path stroke-dasharray="none" id="id-46791432" d="M 440.96 211.632 C 440.96 211.216 440.915 210.801 440.826 210.394 C 440.736 209.988 440.603 209.591 440.428 209.214 C 440.254 208.836 440.038 208.478 439.787 208.147 C 439.535 207.815 439.248 207.512 438.931 207.242 C 438.614 206.973 438.268 206.738 437.901 206.543 C 437.534 206.349 437.146 206.194 436.745 206.082 C 436.345 205.971 435.932 205.903 435.517 205.881 C 435.102 205.858 434.685 205.881 434.275 205.948 C 433.865 206.016 433.462 206.128 433.076 206.282 C 432.69 206.436 432.321 206.632 431.977 206.865 C 431.633 207.098 431.314 207.369 431.028 207.671 C 430.742 207.973 430.489 208.306 430.275 208.663 C 430.061 209.019 429.885 209.399 429.753 209.793 C 429.62 210.188 429.53 210.596 429.485 211.01 C 429.44 211.423 429.44 211.842 429.485 212.255 C 429.53 212.669 429.62 213.077 429.753 213.472 C 429.885 213.866 430.061 214.246 430.275 214.602 C 430.489 214.959 430.742 215.292 431.028 215.594 C 431.314 215.896 431.633 216.167 431.977 216.4 C 432.321 216.633 432.69 216.829 433.076 216.983 C 433.462 217.137 433.865 217.249 434.275 217.317 C 434.685 217.384 435.102 217.407 435.517 217.384 C 435.932 217.361 436.345 217.294 436.745 217.183 C 437.146 217.071 437.534 216.916 437.901 216.721 C 438.268 216.527 438.614 216.292 438.931 216.023 C 439.248 215.753 439.535 215.449 439.787 215.118 C 440.038 214.787 440.254 214.429 440.428 214.051 C 440.603 213.673 440.736 213.277 440.826 212.871 C 440.915 212.464 440.96 212.048 440.96 211.632 Z " fill-opacity="1.0" fill="#FC6255"/><path stroke-dasharray="none" id="id-39916960" d="M 440.96 288.0 C 440.96 287.584 440.915 287.168 440.826 286.762 C 440.736 286.356 440.603 285.959 440.428 285.581 C 440.254 285.204 440.038 284.845 439.787 284.514 C 439.535 284.183 439.248 283.879 438.931 283.61 C 438.614 283.341 438.268 283.106 437.901 282.911 C 437.534 282.716 437.146 282.561 436.745 282.45 C 436.345 282.339 435.932 282.271 435.517 282.248 C 435.102 282.226 434.685 282.249 434.275 282.316 C 433.865 282.383 433.462 282.495 433.076 282.649 C 432.69 282.803 432.321 282.999 431.977 283.233 C 431.633 283.466 431.314 283.737 431.028 284.039 C 430.742 284.341 430.489 284.674 430.275 285.03 C 430.061 285.387 429.885 285.767 429.753 286.161 C 429.62 286.555 429.53 286.964 429.485 287.377 C 429.44 287.791 429.44 288.209 429.485 288.623 C 429.53 289.036 429.62 289.445 429.753 289.839 C 429.885 290.233 430.061 290.613 430.275 290.97 C 430.489 291.326 430.742 291.659 431.028 291.961 C 431.314 292.263 431.633 292.534 431.977 292.767 C 432.321 293.001 432.69 293.197 433.076 293.351 C 433.462 293.505 433.865 293.617 434.275 293.684 C 434.685 293.751 435.102 293.774 435.517 293.752 C 435.932 293.729 436.345 293.661 436.745 293.55 C 437.146 293.439 437.534 293.284 437.901 293.089 C 438.268 292.894 438.614 292.659 438.931 292.39 C 439.248 292.121 439.535 291.817 439.787 291.486 C 440.038 291.155 440.254 290.796 440.428 290.419 C 440.603 290.041 440.736 289.644 440.826 289.238 C 440.915 288.832 440.96 288.416 440.96 288.0 Z " fill-opacity="1.0" fill="#FC6255"/><path stroke-dasharray="none" id="id-49928184" d="M 440.96 364.368 C 440.96 363.952 440.915 363.536 440.826 363.129 C 440.736 362.723 440.603 362.327 440.428 361.949 C 440.254 361.571 440.038 361.213 439.787 360.882 C 439.535 360.551 439.248 360.247 438.931 359.977 C 438.614 359.708 438.268 359.473 437.901 359.279 C 437.534 359.084 437.146 358.929 436.745 358.817 C 436.345 358.706 435.932 358.639 435.517 358.616 C 435.102 358.593 434.685 358.616 434.275 358.683 C 433.865 358.751 433.462 358.863 433.076 359.017 C 432.69 359.171 432.321 359.367 431.977 359.6 C 431.633 359.833 431.314 360.104 431.028 360.406 C 430.742 360.708 430.489 361.041 430.275 361.398 C 430.061 361.754 429.885 362.134 429.753 362.528 C 429.62 362.923 429.53 363.331 429.485 363.745 C 429.44 364.158 429.44 364.577 429.485 364.99 C 429.53 365.404 429.62 365.812 429.753 366.207 C 429.885 366.601 430.061 366.981 430.275 367.337 C 430.489 367.694 430.742 368.027 431.028 368.329 C 431.314 368.631 431.633 368.902 431.977 369.135 C 432.321 369.368 432.69 369.564 433.076 369.718 C 433.462 369.872 433.865 369.984 434.275 370.052 C 434.685 370.119 435.102 370.142 435.517 370.119 C 435.932 370.097 436.345 370.029 436.745 369.918 C 437.146 369.806 437.534 369.651 437.901 369.457 C 438.268 369.262 438.614 369.027 438.931 368.758 C 439.248 368.488 439.535 368.185 439.787 367.853 C 440.038 367.522 440.254 367.164 440.428 366.786 C 440.603 366.409 440.736 366.012 440.826 365.606 C 440.915 365.199 440.96 364.784 440.96 364.368 Z " fill-opacity="1.0" fill="#FC6255"/><path stroke-dasharray="none" id="id-47452232" d="M 517.254 364.368 C 517.254 363.952 517.209 363.536 517.12 363.129 C 517.031 362.723 516.897 362.327 516.723 361.949 C 516.548 361.571 516.333 361.213 516.081 360.882 C 515.83 360.551 515.542 360.247 515.225 359.977 C 514.909 359.708 514.563 359.473 514.195 359.279 C 513.828 359.084 513.44 358.929 513.039 358.817 C 512.639 358.706 512.227 358.639 511.812 358.616 C 511.397 358.593 510.979 358.616 510.569 358.683 C 510.159 358.751 509.756 358.863 509.37 359.017 C 508.984 359.171 508.615 359.367 508.271 359.6 C 507.927 359.833 507.608 360.104 507.322 360.406 C 507.036 360.708 506.784 361.041 506.569 361.398 C 506.355 361.754 506.179 362.134 506.047 362.528 C 505.914 362.923 505.824 363.331 505.779 363.745 C 505.734 364.158 505.734 364.577 505.779 364.99 C 505.824 365.404 505.914 365.812 506.047 366.207 C 506.179 366.601 506.355 366.981 506.569 367.337 C 506.784 367.694 507.036 368.027 507.322 368.329 C 507.608 368.631 507.927 368.902 508.271 369.135 C 508.615 369.368 508.984 369.564 509.37 369.718 C 509.756 369.872 510.159 369.984 510.569 370.052 C 510.979 370.119 511.397 370.142 511.812 370.119 C 512.227 370.097 512.639 370.029 513.039 369.918 C 513.44 369.806 513.828 369.651 514.195 369.457 C 514.563 369.262 514.909 369.027 515.225 368.758 C 515.542 368.488 515.83 368.185 516.081 367.853 C 516.333 367.522 516.548 367.164 516.723 366.786 C 516.897 366.409 517.031 366.012 517.12 365.606 C 517.209 365.199 517.254 364.784 517.254 364.368 Z " fill-opacity="1.0" fill="#FC6255"/><path stroke-dasharray="none" id="id-51090032" d="M 593.549 364.368 C 593.549 363.952 593.503 363.536 593.414 363.129 C 593.325 362.723 593.191 362.327 593.017 361.949 C 592.842 361.571 592.627 361.213 592.375 360.882 C 592.124 360.551 591.836 360.247 591.52 359.977 C 591.203 359.708 590.857 359.473 590.49 359.279 C 590.122 359.084 589.734 358.929 589.334 358.817 C 588.933 358.706 588.521 358.639 588.106 358.616 C 587.691 358.593 587.273 358.616 586.863 358.683 C 586.453 358.751 586.05 358.863 585.664 359.017 C 585.278 359.171 584.909 359.367 584.565 359.6 C 584.221 359.833 583.902 360.104 583.616 360.406 C 583.331 360.708 583.078 361.041 582.863 361.398 C 582.649 361.754 582.474 362.134 582.341 362.528 C 582.208 362.923 582.118 363.331 582.073 363.745 C 582.028 364.158 582.028 364.577 582.073 364.99 C 582.118 365.404 582.208 365.812 582.341 366.207 C 582.474 366.601 582.649 366.981 582.863 367.337 C 583.078 367.694 583.331 368.027 583.616 368.329 C 583.902 368.631 584.221 368.902 584.565 369.135 C 584.909 369.368 585.278 369.564 585.664 369.718 C 586.05 369.872 586.453 369.984 586.863 370.052 C 587.273 370.119 587.691 370.142 588.106 370.119 C 588.521 370.097 588.933 370.029 589.334 369.918 C 589.734 369.806 590.122 369.651 590.49 369.457 C 590.857 369.262 591.203 369.027 591.52 368.758 C 591.836 368.488 592.124 368.185 592.375 367.853 C 592.627 367.522 592.842 367.164 593.017 366.786 C 593.191 366.409 593.325 366.012 593.414 365.606 C 593.503 365.199 593.549 364.784 593.549 364.368 Z " fill-opacity="1.0" fill="#FC6255"/><path stroke-dasharray="none" id="id-52352200" d="M 517.254 288.0 C 517.254 287.584 517.209 287.168 517.12 286.762 C 517.031 286.356 516.897 285.959 516.723 285.581 C 516.548 285.204 516.333 284.845 516.081 284.514 C 515.83 284.183 515.542 283.879 515.225 283.61 C 514.909 283.341 514.563 283.106 514.195 282.911 C 513.828 282.716 513.44 282.561 513.039 282.45 C 512.639 282.339 512.227 282.271 511.812 282.248 C 511.397 282.226 510.979 282.249 510.569 282.316 C 510.159 282.383 509.756 282.495 509.37 282.649 C 508.984 282.803 508.615 282.999 508.271 283.233 C 507.927 283.466 507.608 283.737 507.322 284.039 C 507.036 284.341 506.784 284.674 506.569 285.03 C 506.355 285.387 506.179 285.767 506.047 286.161 C 505.914 286.555 505.824 286.964 505.779 287.377 C 505.734 287.791 505.734 288.209 505.779 288.623 C 505.824 289.036 505.914 289.445 506.047 289.839 C 506.179 290.233 506.355 290.613 506.569 290.97 C 506.784 291.326 507.036 291.659 507.322 291.961 C 507.608 292.263 507.927 292.534 508.271 292.767 C 508.615 293.001 508.984 293.197 509.37 293.351 C 509.756 293.505 510.159 293.617 510.569 293.684 C 510.979 293.751 511.397 293.774 511.812 293.752 C 512.227 293.729 512.639 293.661 513.039 293.55 C 513.44 293.439 513.828 293.284 514.195 293.089 C 514.563 292.894 514.909 292.659 515.225 292.39 C 515.542 292.121 515.83 291.817 516.081 291.486 C 516.333 291.155 516.548 290.796 516.723 290.419 C 516.897 290.041 517.031 289.644 517.12 289.238 C 517.209 288.832 517.254 288.416 517.254 288.0 Z " fill-opacity="1.0" fill="#FC6255"/></svg>