<svg id="smanim-canvas" xmlns="http://www.w3.org/2000/svg" viewBox="418.36741753429175 214.23557723552472 186.29889785129325 226.4054771429385"><path stroke-dasharray="none" id="id-51151536" d="M 547.36 391.96 C 547.36 389.36 547.078 386.76 546.519 384.221 C 545.961 381.682 545.127 379.204 544.036 376.844 C 542.945 374.484 541.598 372.244 540.026 370.174 C 538.454 368.104 536.658 366.205 534.678 364.522 C 532.698 362.839 530.536 361.371 528.241 360.154 C 525.946 358.936 523.519 357.968 521.016 357.272 C 518.514 356.577 515.935 356.154 513.342 356.013 C 510.748 355.872 508.139 356.014 505.576 356.434 C 503.013 356.855 500.495 357.555 498.082 358.517 C 495.669 359.479 493.361 360.704 491.211 362.163 C 489.061 363.622 487.07 365.315 485.284 367.203 C 483.498 369.09 481.916 371.172 480.577 373.4 C 479.238 375.628 478.141 378.001 477.312 380.465 C 476.482 382.929 475.921 385.483 475.64 388.068 C 475.359 390.652 475.359 393.268 475.64 395.852 C 475.921 398.437 476.482 400.991 477.312 403.455 C 478.141 405.919 479.238 408.292 480.577 410.52 C 481.916 412.748 483.498 414.83 485.284 416.717 C 487.07 418.605 489.061 420.298 491.211 421.757 C 493.361 423.216 495.669 424.441 498.082 425.403 C 500.495 426.366 503.013 427.065 505.576 427.486 C 508.139 427.906 510.748 428.048 513.342 427.907 C 515.935 427.767 518.514 427.343 521.016 426.648 C 523.519 425.952 525.946 424.984 528.241 423.767 C 530.536 422.549 532.698 421.081 534.678 419.398 C 536.658 417.715 538.454 415.816 540.026 413.746 C 541.598 411.677 542.945 409.436 544.036 407.076 C 545.127 404.716 545.961 402.238 546.519 399.699 C 547.078 397.16 547.36 394.56 547.36 391.96 Z " fill-opacity="1.0" fill="#444444"/><path stroke-dasharray="none" id="id-45877848" d="M 564.192 227.187 C 519.888 245.556 475.585 263.925 431.281 282.294 C 440.457 304.467 449.632 326.64 458.808 348.813 C 503.112 330.444 547.415 312.075 591.719 293.706 C 582.543 271.533 573.368 249.36 564.192 227.187 Z " fill-opacity="1.0" fill="#888888"/><rect id="id-47447032" x="425.56" y="221.436" width="171.913" height="133.001" fill="transparent"/><path stroke-dasharray="none" id="id-51139680" d="M 597.473 288.0 C 597.473 287.584 597.428 287.168 597.339 286.762 C 597.249 286.356 597.116 285.959 596.941 285.581 C 596.767 285.204 596.551 284.845 596.3 284.514 C 596.048 284.183 595.761 283.879 595.444 283.61 C 595.127 283.341 594.781 283.106 594.414 282.911 C 594.047 282.716 593.659 282.561 593.258 282.45 C 592.858 282.339 592.445 282.271 592.03 282.248 C 591.615 282.226 591.198 282.249 590.788 282.316 C 590.378 282.383 589.975 282.495 589.589 282.649 C 589.203 282.803 588.833 282.999 588.489 283.233 C 588.145 283.466 587.827 283.737 587.541 284.039 C 587.255 284.341 587.002 284.674 586.788 285.03 C 586.574 285.387 586.398 285.767 586.266 286.161 C 586.133 286.555 586.043 286.964 585.998 287.377 C 585.953 287.791 585.953 288.209 585.998 288.623 C 586.043 289.036 586.133 289.445 586.266 289.839 C 586.398 290.233 586.574 290.613 586.788 290.97 C 587.002 291.326 587.255 291.659 587.541 291.961 C 587.827 292.263 588.145 292.534 588.489 292.767 C 588.833 293.001 589.203 293.197 589.589 293.351 C 589.975 293.505 590.378 293.617 590.788 293.684 C 591.198 293.751 591.615 293.774 592.03 293.752 C 592.445 293.729 592.858 293.661 593.258 293.55 C 593.659 293.439 594.047 293.284 594.414 293.089 C 594.781 292.894 595.127 292.659 595.444 292.39 C 595.761 292.121 596.048 291.817 596.3 291.486 C 596.551 291.155 596.767 290.796 596.941 290.419 C 597.116 290.041 597.249 289.644 597.339 289.238 C 597.428 288.832 597.473 288.416 597.473 288.0 Z " fill-opacity="1.0" fill="#FC6255"/><path stroke-dasharray="none" id="id-47216384" d="M 597.473 227.187 C 597.473 226.771 597.428 226.355 597.339 225.949 C 597.249 225.543 597.116 225.146 596.941 224.769 C 596.767 224.391 596.551 224.032 596.3 223.701 C 596.048 223.37 595.761 223.066 595.444 222.797 C 595.127 222.528 594.781 222.293 594.414 222.098 C 594.047 221.903 593.659 221.748 593.258 221.637 C 592.858 221.526 592.445 221.458 592.03 221.436 C 591.615 221.413 591.198 221.436 590.788 221.503 C 590.378 221.57 589.975 221.682 589.589 221.836 C 589.203 221.99 588.833 222.186 588.489 222.42 C 588.145 222.653 587.827 222.924 587.541 223.226 C 587.255 223.528 587.002 223.861 586.788 224.218 C 586.574 224.574 586.398 224.954 586.266 225.348 C 586.133 225.742 586.043 226.151 585.998 226.564 C 585.953 226.978 585.953 227.396 585.998 227.81 C 586.043 228.223 586.133 228.632 586.266 229.026 C 586.398 229.421 586.574 229.8 586.788 230.157 C 587.002 230.513 587.255 230.846 587.541 231.148 C 587.827 231.45 588.145 231.721 588.489 231.955 C 588.833 232.188 589.203 232.384 589.589 232.538 C 589.975 232.692 590.378 232.804 590.788 232.871 C 591.198 232.939 591.615 232.961 592.03 232.939 C 592.445 232.916 592.858 232.848 593.258 232.737 C 593.659 232.626 594.047 232.471 594.414 232.276 C 594.781 232.081 595.127 231.846 595.444 231.577 C 595.761 231.308 596.048 231.004 596.3 230.673 C 596.551 230.342 596.767 229.983 596.941 229.606 C 597.116 229.228 597.249 228.832 597.339 228.425 C 597.428 228.019 597.473 227.603 597.473 227.187 Z " fill-opacity="1.0" fill="#FC6255"/><path stroke-dasharray="none" id="id-53210016" d="M 517.254 227.187 C 517.254 226.771 517.209 226.355 517.12 225.949 C 517.031 225.543 516.897 225.146 516.723 224.769 C 516.548 224.391 516.333 224.032 516.081 223.701 C 515.83 223.37 515.542 223.066 515.225 222.797 C 514.909 222.528 514.563 222.293 514.195 222.098 C 513.828 221.903 513.44 221.748 513.039 221.637 C 512.639 221.526 512.227 221.458 511.812 221.436 C 511.397 221.413 510.979 221.436 510.569 221.503 C 510.159 221.57 509.756 221.682 509.37 221.836 C 508.984 221.99 508.615 222.186 508.271 222.42 C 507.927 222.653 507.608 222.924 507.322 223.226 C 507.036 223.528 506.784 223.861 506.569 224.218 C 506.355 224.574 506.179 224.954 506.047 225.348 C 505.914 225.742 505.824 226.151 505.779 226.564 C 505.734 226.978 505.734 227.396 505.779 227.81 C 505.824 228.223 505.914 228.632 506.047 229.026 C 506.179 229.421 506.355 229.8 506.569 230.157 C 506.784 230.513 507.036 230.846 507.322 231.148 C 507.608 231.45 507.927 231.721 508.271 231.955 C 508.615 232.188 508.984 232.384 509.37 232.538 C 509.756 232.692 510.159 232.804 510.569 232.871 C 510.979 232.939 511.397 232.961 511.812 232.939 C 512.227 232.916 512.639 232.848 513.039 232.737 C 513.44 232.626 513.828 232.471 514.195 232.276 C 514.563 232.081 514.909 231.846 515.225 231.577 C 515.542 231.308 515.83 231.004 516.081 230.673 C 516.333 230.342 516.548 229.983 516.723 229.606 C 516.897 229.228 517.031 228.832 517.12 228.425 C 517.209 228.019 517.254 227.603 517.254 227.187 Z " fill-opacity="1.0" fill="#FC6255"/><path stroke-dasharray="none" id="id-51437296" d="M 437.036 227.187 C 437.036 226.771 436.99 226.355 436.901 225.949 C 436.812 225.543 436.678 225.146 436.504 224.769 C 436.329 224.391 436.114 224.032 435.862 223.701 C 435.611 223.37 435.323 223.066 435.007 222.797 C 434.69 222.528 434.344 222.293 433.977 222.098 C 433.609 221.903 433.221 221.748 432.821 221.637 C 432.42 221.526 432.008 221.458 431.593 221.436 C 431.178 221.413 430.76 221.436 430.35 221.503 C 429.94 221.57 429.537 221.682 429.151 221.836 C 428.765 221.99 428.396 222.186 428.052 222.42 C 427.708 222.653 427.389 222.924 427.104 223.226 C 426.818 223.528 426.565 223.861 426.35 224.218 C 426.136 224.574 425.961 224.954 425.828 225.348 C 425.695 225.742 425.605 226.151 425.56 226.564 C 425.516 226.978 425.516 227.396 425.56 227.81 C 425.605 228.223 425.695 228.632 425.828 229.026 C 425.961 229.421 426.136 229.8 426.35 230.157 C 426.565 230.513 426.818 230.846 427.104 231.148 C 427.389 231.45 427.708 231.721 428.052 231.955 C 428.396 232.188 428.765 232.384 429.151 232.538 C 429.537 232.692 429.94 232.804 430.35 232.871 C 430.76 232.939 431.178 232.961 431.593 232.939 C 432.008 232.916 432.42 232.848 432.821 232.737 C 433.221 232.626 433.609 232.471 433.977 232.276 C 434.344 232.081 434.69 231.846 435.007 231.577 C 435.323 231.308 435.611 231.004 435.862 230.673 C 436.114 230.342 436.329 229.983 436.504 229.606 C 436.678 229.228 436.812 228.832 436.901 228.425 C 436.99 228.019 437.036 227.603 437.036 227.187 Z " fill-opacity="1.0" fill="#FC6255"/><path stroke-dasharray="none" id="id-45491544" d="M 437.036 288.0 C 437.036 287.584 436.99 287.168 436.901 286.762 C 436.812 286.356 436.678 285.959 436.504 285.581 C 436.329 285.204 436.114 284.845 435.862 284.514 C 435.611 284.183 435.323 283.879 435.007 283.61 C 434.69 283.341 434.344 283.106 433.977 282.911 C 433.609 282.716 433.221 282.561 432.821 282.45 C 432.42 282.339 432.008 282.271 431.593 282.248 C 431.178 282.226 430.76 282.249 430.35 282.316 C 429.94 282.383 429.537 282.495 429.151 282.649 C 428.765 282.803 428.396 282.999 428.052 283.233 C 427.708 283.466 427.389 283.737 427.104 284.039 C 426.818 284.341 426.565 284.674 426.35 285.03 C 426.136 285.387 425.961 285.767 425.828 286.161 C 425.695 286.555 425.605 286.964 425.56 287.377 C 425.516 287.791 425.516 288.209 425.56 288.623 C 425.605 289.036 425.695 289.445 425.828 289.839 C 425.961 290.233 426.136 290.613 426.35 290.97 C 426.565 291.326 426.818 291.659 427.104 291.961 C 427.389 292.263 427.708 292.534 428.052 292.767 C 428.396 293.001 428.765 293.197 429.151 293.351 C 429.537 293.505 429.94 293.617 430.35 293.684 C 430.76 293.751 431.178 293.774 431.593 293.752 C 432.008 293.729 432.42 293.661 432.821 293.55 C 433.221 293.439 433.609 293.284 433.977 293.089 C 434.344 292.894 434.69 292.659 435.007 292.39 C 435.323 292.121 435.611 291.817 435.862 291.486 C 436.114 291.155 436.329 290.796 436.504 290.419 C 436.678 290.041 436.812 289.644 436.901 289.238 C 436.99 288.832 437.036 288.416 437.036 288.0 Z " fill-opacity="1.0" fill="#FC6255"/><path stroke-dasharray="none" id="id-47201176" d="M 437.036 348.813 C 437.036 348.397 436.99 347.981 436.901 347.575 C 436.812 347.168 436.678 346.772 436.504 346.394 C 436.329 346.017 436.114 345.658 435.862 345.327 C 435.611 344.996 435.323 344.692 435.007 344.423 C 434.69 344.154 434.344 343.919 433.977 343.724 C 433.609 343.529 433.221 343.374 432.821 343.263 C 432.42 343.152 432.008 343.084 431.593 343.061 C 431.178 343.039 430.76 343.061 430.35 343.129 C 429.94 343.196 429.537 343.308 429.151 343.462 C 428.765 343.616 428.396 343.812 428.052 344.045 C 427.708 344.279 427.389 344.55 427.104 344.852 C 426.818 345.154 426.565 345.487 426.35 345.843 C 426.136 346.2 425.961 346.579 425.828 346.974 C 425.695 347.368 425.605 347.777 425.56 348.19 C 425.516 348.604 425.516 349.022 425.56 349.436 C 425.605 349.849 425.695 350.258 425.828 350.652 C 425.961 351.046 426.136 351.426 426.35 351.782 C 426.565 352.139 426.818 352.472 427.104 352.774 C 427.389 353.076 427.708 353.347 428.052 353.58 C 428.396 353.814 428.765 354.01 429.151 354.164 C 429.537 354.318 429.94 354.43 430.35 354.497 C 430.76 354.564 431.178 354.587 431.593 354.564 C 432.008 354.542 432.42 354.474 432.821 354.363 C 433.221 354.252 433.609 354.097 433.977 353.902 C 434.344 353.707 434.69 353.472 435.007 353.203 C 435.323 352.934 435.611 352.63 435.862 352.299 C 436.114 351.968 436.329 351.609 436.504 351.231 C 436.678 350.854 436.812 350.457 436.901 350.051 C 436.99 349.645 437.036 349.229 437.036 348.813 Z " fill-opacity="1.0" fill="#FC6255"/><path stroke-dasharray="none" id="id-47215848" d="M 517.254 348.813 C 517.254 348.397 517.209 347.981 517.12 347.575 C 517.031 347.168 516.897 346.772 516.723 346.394 C 516.548 346.017 516.333 345.658 516.081 345.327 C 515.83 344.996 515.542 344.692 515.225 344.423 C 514.909 344.154 514.563 343.919 514.195 343.724 C 513.828 343.529 513.44 343.374 513.039 343.263 C 512.639 343.152 512.227 343.084 511.812 343.061 C 511.397 343.039 510.979 343.061 510.569 343.129 C 510.159 343.196 509.756 343.308 509.37 343.462 C 508.984 343.616 508.615 343.812 508.271 344.045 C 507.927 344.279 507.608 344.55 507.322 344.852 C 507.036 345.154 506.784 345.487 506.569 345.843 C 506.355 346.2 506.179 346.579 506.047 346.974 C 505.914 347.368 505.824 347.777 505.779 348.19 C 505.734 348.604 505.734 349.022 505.779 349.436 C 505.824 349.849 505.914 350.258 506.047 350.652 C 506.179 351.046 506.355 351.426 506.569 351.782 C 506.784 352.139 507.036 352.472 507.322 352.774 C 507.608 353.076 507.927 353.347 508.271 353.58 C 508.615 353.814 508.984 354.01 509.37 354.164 C 509.756 354.318 510.159 354.43 510.569 354.497 C 510.979 354.564 511.397 354.587 511.812 354.564 C 512.227 354.542 512.639 354.474 513.039 354.363 C 513.44 354.252 513.828 354.097 514.195 353.902 C 514.563 353.707 514.909 353.472 515.225 353.203 C 515.542 352.934 515.83 352.63 516.081 352.299 C 516.333 351.968 516.548 351.609 516.723 351.231 C 516.897 350.854 517.031 350.457 517.12 350.051 C 517.209 349.645 517.254 349.229 517.254 348.813 Z " fill-opacity="1.0" fill="#FC6255"/><path stroke-dasharray="none" id="id-51415832" d="M 597.473 348.813 C 597.473 348.397 597.428 347.981 597.339 347.575 C 597.249 347.168 597.116 346.772 596.941 346.394 C 596.767 346.017 596.551 345.658 596.3 345.327 C 596.048 344.996 595.761 344.692 595.444 344.423 C 595.127 344.154 594.781 343.919 594.414 343.724 C 594.047 343.529 593.659 343.374 593.258 343.263 C 592.858 343.152 592.445 343.084 592.03 343.061 C 591.615 343.039 591.198 343.061 590.788 343.129 C 590.378 343.196 589.975 343.308 589.589 343.462 C 589.203 343.616 588.833 343.812 588.489 344.045 C 588.145 344.279 587.827 344.55 587.541 344.852 C 587.255 345.154 587.002 345.487 586.788 345.843 C 586.574 346.2 586.398 346.579 586.266 346.974 C 586.133 347.368 586.043 347.777 585.998 348.19 C 585.953 348.604 585.953 349.022 585.998 349.436 C 586.043 349.849 586.133 350.258 586.266 350.652 C 586.398 351.046 586.574 351.426 586.788 351.782 C 587.002 352.139 587.255 352.472 587.541 352.774 C 587.827 353.076 588.145 353.347 588.489 353.58 C 588.833 353.814 589.203 354.01 589.589 354.164 C 589.975 354.318 590.378 354.43 590.788 354.497 C 591.198 354.564 591.615 354.587 592.03 354.564 C 592.445 354.542 592.858 354.474 593.258 354.363 C 593.659 354.252 594.047 354.097 594.414 353.902 C 594.781 353.707 595.127 353.472 595.444 353.203 C 595.761 352.934 596.048 352.63 596.3 352.299 C 596.551 351.968 596.767 351.609 596.941 351.231 C 597.116 350.854 597.249 350.457 597.339 350.051 C 597.428 349.645 597.473 349.229 597.473 348.813 Z " fill-opacity="1.0" fill="#FC6255"/><path stroke-dasharray="none" id="id-53260968" d="M 517.254 288.0 C 517.254 287.584 517.209 287.168 517.12 286.762 C 517.031 286.356 516.897 285.959 516.723 285.581 C 516.548 285.204 516.333 284.845 516.081 284.514 C 515.83 284.183 515.542 283.879 515.225 283.61 C 514.909 283.341 514.563 283.106 514.195 282.911 C 513.828 282.716 513.44 282.561 513.039 282.45 C 512.639 282.339 512.227 282.271 511.812 282.248 C 511.397 282.226 510.979 282.249 510.569 282.316 C 510.159 282.383 509.756 282.495 509.37 282.649 C 508.984 282.803 508.615 282.999 508.271 283.233 C 507.927 283.466 507.608 283.737 507.322 284.039 C 507.036 284.341 506.784 284.674 506.569 285.03 C 506.355 285.387 506.179 285.767 506.047 286.161 C 505.914 286.555 505.824 286.964 505.779 287.377 C 505.734 287.791 505.734 288.209 505.779 288.623 C 505.824 289.036 505.914 289.445 506.047 289.839 C 506.179 290.233 506.355 290.613 506.569 290.97 C 506.784 291.326 507.036 291.659 507.322 291.961 C 507.608 292.263 507.927 292.534 508.271 292.767 C 508.615 293.001 508.984 293.197 509.37 293.351 C 509.756 293.505 510.159 293.617 510.569 293.684 C 510.979 293.751 511.397 293.774 511.812 293.752 C 512.227 293.729 512.639 293.661 513.039 293.55 C 513.44 293.439 513.828 293.284 514.195 293.089 C 514.563 292.894 514.909 292.659 515.225 292.39 C 515.542 292.121 515.83 291.817 516.081 291.486 C 516.333 291.155 516.548 290.796 516.723 290.419 C 516.897 290.041 517.031 289.644 517.12 289.238 C 517.209 288.832 517.254 288.416 517.254 288.0 Z " fill-opacity="1.0" fill="#FC6255"/><rect id="id-45883544" x="469.919" y="350.261" width="83.195" height="83.317" fill="transparent"/><path stroke-dasharray="none" id="id-45439792" d="M 553.114 391.96 C 553.114 391.544 553.069 391.128 552.98 390.722 C 552.891 390.316 552.757 389.919 552.583 389.542 C 552.408 389.164 552.193 388.805 551.941 388.474 C 551.69 388.143 551.402 387.839 551.085 387.57 C 550.769 387.301 550.423 387.066 550.055 386.871 C 549.688 386.676 549.3 386.521 548.899 386.41 C 548.499 386.299 548.087 386.231 547.672 386.209 C 547.257 386.186 546.839 386.209 546.429 386.276 C 546.019 386.343 545.616 386.455 545.23 386.609 C 544.844 386.763 544.475 386.959 544.131 387.193 C 543.787 387.426 543.468 387.697 543.182 387.999 C 542.896 388.301 542.643 388.634 542.429 388.99 C 542.215 389.347 542.039 389.727 541.907 390.121 C 541.774 390.515 541.684 390.924 541.639 391.337 C 541.594 391.751 541.594 392.169 541.639 392.583 C 541.684 392.996 541.774 393.405 541.907 393.799 C 542.039 394.193 542.215 394.573 542.429 394.93 C 542.643 395.286 542.896 395.619 543.182 395.921 C 543.468 396.223 543.787 396.494 544.131 396.728 C 544.475 396.961 544.844 397.157 545.23 397.311 C 545.616 397.465 546.019 397.577 546.429 397.644 C 546.839 397.711 547.257 397.734 547.672 397.712 C 548.087 397.689 548.499 397.621 548.899 397.51 C 549.3 397.399 549.688 397.244 550.055 397.049 C 550.423 396.854 550.769 396.619 551.085 396.35 C 551.402 396.081 551.69 395.777 551.941 395.446 C 552.193 395.115 552.408 394.756 552.583 394.379 C 552.757 394.001 552.891 393.605 552.98 393.198 C 553.069 392.792 553.114 392.376 553.114 391.96 Z " fill-opacity="1.0" fill="#58C4DD"/><path stroke-dasharray="none" id="id-53711880" d="M 553.114 356.013 C 553.114 355.597 553.069 355.181 552.98 354.775 C 552.891 354.368 552.757 353.972 552.583 353.594 C 552.408 353.217 552.193 352.858 551.941 352.527 C 551.69 352.196 551.402 351.892 551.085 351.623 C 550.769 351.354 550.423 351.119 550.055 350.924 C 549.688 350.729 549.3 350.574 548.899 350.463 C 548.499 350.352 548.087 350.284 547.672 350.261 C 547.257 350.239 546.839 350.261 546.429 350.329 C 546.019 350.396 545.616 350.508 545.23 350.662 C 544.844 350.816 544.475 351.012 544.131 351.245 C 543.787 351.479 543.468 351.75 543.182 352.052 C 542.896 352.354 542.643 352.687 542.429 353.043 C 542.215 353.4 542.039 353.779 541.907 354.174 C 541.774 354.568 541.684 354.977 541.639 355.39 C 541.594 355.804 541.594 356.222 541.639 356.636 C 541.684 357.049 541.774 357.458 541.907 357.852 C 542.039 358.246 542.215 358.626 542.429 358.982 C 542.643 359.339 542.896 359.672 543.182 359.974 C 543.468 360.276 543.787 360.547 544.131 360.78 C 544.475 361.014 544.844 361.21 545.23 361.364 C 545.616 361.518 546.019 361.63 546.429 361.697 C 546.839 361.764 547.257 361.787 547.672 361.764 C 548.087 361.742 548.499 361.674 548.899 361.563 C 549.3 361.452 549.688 361.297 550.055 361.102 C 550.423 360.907 550.769 360.672 551.085 360.403 C 551.402 360.134 551.69 359.83 551.941 359.499 C 552.193 359.168 552.408 358.809 552.583 358.431 C 552.757 358.054 552.891 357.657 552.98 357.251 C 553.069 356.845 553.114 356.429 553.114 356.013 Z " fill-opacity="1.0" fill="#58C4DD"/><path stroke-dasharray="none" id="id-47751544" d="M 517.254 356.013 C 517.254 355.597 517.209 355.181 517.12 354.775 C 517.031 354.368 516.897 353.972 516.723 353.594 C 516.548 353.217 516.333 352.858 516.081 352.527 C 515.83 352.196 515.542 351.892 515.225 351.623 C 514.909 351.354 514.563 351.119 514.195 350.924 C 513.828 350.729 513.44 350.574 513.039 350.463 C 512.639 350.352 512.227 350.284 511.812 350.261 C 511.397 350.239 510.979 350.261 510.569 350.329 C 510.159 350.396 509.756 350.508 509.37 350.662 C 508.984 350.816 508.615 351.012 508.271 351.245 C 507.927 351.479 507.608 351.75 507.322 352.052 C 507.036 352.354 506.784 352.687 506.569 353.043 C 506.355 353.4 506.179 353.779 506.047 354.174 C 505.914 354.568 505.824 354.977 505.779 355.39 C 505.734 355.804 505.734 356.222 505.779 356.636 C 505.824 357.049 505.914 357.458 506.047 357.852 C 506.179 358.246 506.355 358.626 506.569 358.982 C 506.784 359.339 507.036 359.672 507.322 359.974 C 507.608 360.276 507.927 360.547 508.271 360.78 C 508.615 361.014 508.984 361.21 509.37 361.364 C 509.756 361.518 510.159 361.63 510.569 361.697 C 510.979 361.764 511.397 361.787 511.812 361.764 C 512.227 361.742 512.639 361.674 513.039 361.563 C 513.44 361.452 513.828 361.297 514.195 361.102 C 514.563 360.907 514.909 360.672 515.225 360.403 C 515.542 360.134 515.83 359.83 516.081 359.499 C 516.333 359.168 516.548 358.809 516.723 358.431 C 516.897 358.054 517.031 357.657 517.12 357.251 C 517.209 356.845 517.254 356.429 517.254 356.013 Z " fill-opacity="1.0" fill="#58C4DD"/><path stroke-dasharray="none" id="id-52282624" d="M 481.394 356.013 C 481.394 355.597 481.349 355.181 481.26 354.775 C 481.171 354.368 481.037 353.972 480.863 353.594 C 480.688 353.217 480.473 352.858 480.221 352.527 C 479.97 352.196 479.682 351.892 479.365 351.623 C 479.049 351.354 478.703 351.119 478.335 350.924 C 477.968 350.729 477.58 350.574 477.179 350.463 C 476.779 350.352 476.367 350.284 475.952 350.261 C 475.537 350.239 475.119 350.261 474.709 350.329 C 474.299 350.396 473.896 350.508 473.51 350.662 C 473.124 350.816 472.755 351.012 472.411 351.245 C 472.067 351.479 471.748 351.75 471.462 352.052 C 471.176 352.354 470.924 352.687 470.709 353.043 C 470.495 353.4 470.319 353.779 470.187 354.174 C 470.054 354.568 469.964 354.977 469.919 355.39 C 469.874 355.804 469.874 356.222 469.919 356.636 C 469.964 357.049 470.054 357.458 470.187 357.852 C 470.319 358.246 470.495 358.626 470.709 358.982 C 470.924 359.339 471.176 359.672 471.462 359.974 C 471.748 360.276 472.067 360.547 472.411 360.78 C 472.755 361.014 473.124 361.21 473.51 361.364 C 473.896 361.518 474.299 361.63 474.709 361.697 C 475.119 361.764 475.537 361.787 475.952 361.764 C 476.367 361.742 476.779 361.674 477.179 361.563 C 477.58 361.452 477.968 361.297 478.335 361.102 C 478.703 360.907 479.049 360.672 479.365 360.403 C 479.682 360.134 479.97 359.83 480.221 359.499 C 480.473 359.168 480.688 358.809 480.863 358.431 C 481.037 358.054 481.171 357.657 481.26 357.251 C 481.349 356.845 481.394 356.429 481.394 356.013 Z " fill-opacity="1.0" fill="#58C4DD"/><path stroke-dasharray="none" id="id-49879104" d="M 481.394 391.96 C 481.394 391.544 481.349 391.128 481.26 390.722 C 481.171 390.316 481.037 389.919 480.863 389.542 C 480.688 389.164 480.473 388.805 480.221 388.474 C 479.97 388.143 479.682 387.839 479.365 387.57 C 479.049 387.301 478.703 387.066 478.335 386.871 C 477.968 386.676 477.58 386.521 477.179 386.41 C 476.779 386.299 476.367 386.231 475.952 386.209 C 475.537 386.186 475.119 386.209 474.709 386.276 C 474.299 386.343 473.896 386.455 473.51 386.609 C 473.124 386.763 472.755 386.959 472.411 387.193 C 472.067 387.426 471.748 387.697 471.462 387.999 C 471.176 388.301 470.924 388.634 470.709 388.99 C 470.495 389.347 470.319 389.727 470.187 390.121 C 470.054 390.515 469.964 390.924 469.919 391.337 C 469.874 391.751 469.874 392.169 469.919 392.583 C 469.964 392.996 470.054 393.405 470.187 393.799 C 470.319 394.193 470.495 394.573 470.709 394.93 C 470.924 395.286 471.176 395.619 471.462 395.921 C 471.748 396.223 472.067 396.494 472.411 396.728 C 472.755 396.961 473.124 397.157 473.51 397.311 C 473.896 397.465 474.299 397.577 474.709 397.644 C 475.119 397.711 475.537 397.734 475.952 397.712 C 476.367 397.689 476.779 397.621 477.179 397.51 C 477.58 397.399 477.968 397.244 478.335 397.049 C 478.703 396.854 479.049 396.619 479.365 396.35 C 479.682 396.081 479.97 395.777 480.221 395.446 C 480.473 395.115 480.688 394.756 480.863 394.379 C 481.037 394.001 481.171 393.605 481.26 393.198 C 481.349 392.792 481.394 392.376 481.394 391.96 Z " fill-opacity="1.0" fill="#58C4DD"/><path stroke-dasharray="none" id="id-47237392" d="M 481.394 427.907 C 481.394 427.491 481.349 427.075 481.26 426.669 C 481.171 426.263 481.037 425.866 480.863 425.489 C 480.688 425.111 480.473 424.753 480.221 424.421 C 479.97 424.09 479.682 423.787 479.365 423.517 C 479.049 423.248 478.703 423.013 478.335 422.818 C 477.968 422.623 477.58 422.469 477.179 422.357 C 476.779 422.246 476.367 422.178 475.952 422.156 C 475.537 422.133 475.119 422.156 474.709 422.223 C 474.299 422.29 473.896 422.402 473.51 422.556 C 473.124 422.71 472.755 422.906 472.411 423.14 C 472.067 423.373 471.748 423.644 471.462 423.946 C 471.176 424.248 470.924 424.581 470.709 424.938 C 470.495 425.294 470.319 425.674 470.187 426.068 C 470.054 426.462 469.964 426.871 469.919 427.285 C 469.874 427.698 469.874 428.116 469.919 428.53 C 469.964 428.944 470.054 429.352 470.187 429.746 C 470.319 430.141 470.495 430.52 470.709 430.877 C 470.924 431.233 471.176 431.566 471.462 431.868 C 471.748 432.17 472.067 432.441 472.411 432.675 C 472.755 432.908 473.124 433.104 473.51 433.258 C 473.896 433.412 474.299 433.524 474.709 433.591 C 475.119 433.659 475.537 433.681 475.952 433.659 C 476.367 433.636 476.779 433.569 477.179 433.457 C 477.58 433.346 477.968 433.191 478.335 432.996 C 478.703 432.801 479.049 432.567 479.365 432.297 C 479.682 432.028 479.97 431.724 480.221 431.393 C 480.473 431.062 480.688 430.703 480.863 430.326 C 481.037 429.948 481.171 429.552 481.26 429.146 C 481.349 428.739 481.394 428.323 481.394 427.907 Z " fill-opacity="1.0" fill="#58C4DD"/><path stroke-dasharray="none" id="id-51138760" d="M 517.254 427.907 C 517.254 427.491 517.209 427.075 517.12 426.669 C 517.031 426.263 516.897 425.866 516.723 425.489 C 516.548 425.111 516.333 424.753 516.081 424.421 C 515.83 424.09 515.542 423.787 515.225 423.517 C 514.909 423.248 514.563 423.013 514.195 422.818 C 513.828 422.623 513.44 422.469 513.039 422.357 C 512.639 422.246 512.227 422.178 511.812 422.156 C 511.397 422.133 510.979 422.156 510.569 422.223 C 510.159 422.29 509.756 422.402 509.37 422.556 C 508.984 422.71 508.615 422.906 508.271 423.14 C 507.927 423.373 507.608 423.644 507.322 423.946 C 507.036 424.248 506.784 424.581 506.569 424.938 C 506.355 425.294 506.179 425.674 506.047 426.068 C 505.914 426.462 505.824 426.871 505.779 427.285 C 505.734 427.698 505.734 428.116 505.779 428.53 C 505.824 428.944 505.914 429.352 506.047 429.746 C 506.179 430.141 506.355 430.52 506.569 430.877 C 506.784 431.233 507.036 431.566 507.322 431.868 C 507.608 432.17 507.927 432.441 508.271 432.675 C 508.615 432.908 508.984 433.104 509.37 433.258 C 509.756 433.412 510.159 433.524 510.569 433.591 C 510.979 433.659 511.397 433.681 511.812 433.659 C 512.227 433.636 512.639 433.569 513.039 433.457 C 513.44 433.346 513.828 433.191 514.195 432.996 C 514.563 432.801 514.909 432.567 515.225 432.297 C 515.542 432.028 515.83 431.724 516.081 431.393 C 516.333 431.062 516.548 430.703 516.723 430.326 C 516.897 429.948 517.031 429.552 517.12 429.146 C 517.209 428.739 517.254 428.323 517.254 427.907 Z " fill-opacity="1.0" fill="#58C4DD"/><path stroke-dasharray="none" id="id-45895728" d="M 553.114 427.907 C 553.114 427.491 553.069 427.075 552.98 426.669 C 552.891 426.263 552.757 425.866 552.583 425.489 C 552.408 425.111 552.193 424.753 551.941 424.421 C 551.69 424.09 551.402 423.787 551.085 423.517 C 550.769 423.248 550.423 423.013 550.055 422.818 C 549.688 422.623 549.3 422.469 548.899 422.357 C 548.499 422.246 548.087 422.178 547.672 422.156 C 547.257 422.133 546.839 422.156 546.429 422.223 C 546.019 422.29 545.616 422.402 545.23 422.556 C 544.844 422.71 544.475 422.906 544.131 423.14 C 543.787 423.373 543.468 423.644 543.182 423.946 C 542.896 424.248 542.643 424.581 542.429 424.938 C 542.215 425.294 542.039 425.674 541.907 426.068 C 541.774 426.462 541.684 426.871 541.639 427.285 C 541.594 427.698 541.594 428.116 541.639 428.53 C 541.684 428.944 541.774 429.352 541.907 429.746 C 542.039 430.141 542.215 430.52 542.429 430.877 C 542.643 431.233 542.896 431.566 543.182 431.868 C 543.468 432.17 543.787 432.441 544.131 432.675 C 544.475 432.908 544.844 433.104 545.23 433.258 C 545.616 433.412 546.019 433.524 546.429 433.591 C 546.839 433.659 547.257 433.681 547.672 433.659 C 548.087 433.636 548.499 433.569 548.899 433.457 C 549.3 433.346 549.688 433.191 550.055 432.996 C 550.423 432.801 550.769 432.567 551.085 432.297 C 551.402 432.028 551.69 431.724 551.941 431.393 C 552.193 431.062 552.408 430.703 552.583 430.326 C 552.757 429.948 552.891 429.552 552.98 429.146 C 553.069 428.739 553.114 428.323 553.114 427.907 Z " fill-opacity="1.0" fill="#58C4DD"/><path stroke-dasharray="none" id="id-52958208" d="M 517.254 391.96 C 517.254 391.544 517.209 391.128 517.12 390.722 C 517.031 390.316 516.897 389.919 516.723 389.542 C 516.548 389.164 516.333 388.805 516.081 388.474 C 515.83 388.143 515.542 387.839 515.225 387.57 C 514.909 387.301 514.563 387.066 514.195 386.871 C 513.828 386.676 513.44 386.521 513.039 386.41 C 512.639 386.299 512.227 386.231 511.812 386.209 C 511.397 386.186 510.979 386.209 510.569 386.276 C 510.159 386.343 509.756 386.455 509.37 386.609 C 508.984 386.763 508.615 386.959 508.271 387.193 C 507.927 387.426 507.608 387.697 507.322 387.999 C 507.036 388.301 506.784 388.634 506.569 388.99 C 506.355 389.347 506.179 389.727 506.047 390.121 C 505.914 390.515 505.824 390.924 505.779 391.337 C 505.734 391.751 505.734 392.169 505.779 392.583 C 505.824 392.996 505.914 393.405 506.047 393.799 C 506.179 394.193 506.355 394.573 506.569 394.93 C 506.784 395.286 507.036 395.619 507.322 395.921 C 507.608 396.223 507.927 396.494 508.271 396.728 C 508.615 396.961 508.984 397.157 509.37 397.311 C 509.756 397.465 510.159 397.577 510.569 397.644 C 510.979 397.711 511.397 397.734 511.812 397.712 C 512.227 397.689 512.639 397.621 513.039 397.51 C 513.44 397.399 513.828 397.244 514.195 397.049 C 514.563 396.854 514.909 396.619 515.225 396.35 C 515.542 396.081 515.83 395.777 516.081 395.446 C 516.333 395.115 516.548 394.756 516.723 394.379 C 516.897 394.001 517.031 393.605 517.12 393.198 C 517.209 392.792 517.254 392.376 517.254 391.96 Z " fill-opacity="1.0" fill="#58C4DD"/></svg>