<svg id="smanim-canvas" xmlns="http://www.w3.org/2000/svg" viewBox="205.79405146955423 133.2 611.4118970608915 309.3024891013922"><rect id="id-43901400" x="212.987" y="140.4" width="597.026" height="294.916" fill="transparent"/><path stroke-dasharray="none" id="id-50825280" d="M 356.849 140.4 C 308.895 140.4 260.941 140.4 212.987 140.4 C 212.987 188.4 212.987 236.4 212.987 284.4 C 260.941 284.4 308.895 284.4 356.849 284.4 C 356.849 236.4 356.849 188.4 356.849 140.4 Z " fill-opacity="0.0" fill="#888888"/><path stroke-dasharray="none" id="id-51295888" d="M 507.903 140.4 C 459.95 140.4 411.996 140.4 364.042 140.4 C 364.042 188.4 364.042 236.4 364.042 284.4 C 411.996 284.4 459.95 284.4 507.903 284.4 C 507.903 236.4 507.903 188.4 507.903 140.4 Z " fill-opacity="0.125" fill="#888888"/><path stroke-dasharray="none" id="id-47716184" d="M 658.958 140.4 C 611.004 140.4 563.05 140.4 515.097 140.4 C 515.097 188.4 515.097 236.4 515.097 284.4 C 563.05 284.4 611.004 284.4 658.958 284.4 C 658.958 236.4 658.958 188.4 658.958 140.4 Z " fill-opacity="0.25" fill="#888888"/><path stroke-dasharray="none" id="id-52293280" d="M 810.013 140.4 C 762.059 140.4 714.105 140.4 666.151 140.4 C 666.151 188.4 666.151 236.4 666.151 284.4 C 714.105 284.4 762.059 284.4 810.013 284.4 C 810.013 236.4 810.013 188.4 810.013 140.4 Z " fill-opacity="0.375" fill="#888888"/><path stroke-dasharray="none" id="id-47721616" d="M 356.849 291.6 C 308.895 291.6 260.941 291.6 212.987 291.6 C 212.987 339.6 212.987 387.6 212.987 435.6 C 260.941 435.6 308.895 435.6 356.849 435.6 C 356.849 387.6 356.849 339.6 356.849 291.6 Z " fill-opacity="0.5" fill="#888888"/><path stroke-dasharray="none" id="id-40039856" d="M 507.903 291.6 C 459.95 291.6 411.996 291.6 364.042 291.6 C 364.042 339.6 364.042 387.6 364.042 435.6 C 411.996 435.6 459.95 435.6 507.903 435.6 C 507.903 387.6 507.903 339.6 507.903 291.6 Z " fill-opacity="0.625" fill="#888888"/><path stroke-dasharray="none" id="id-53718144" d="M 658.958 291.6 C 611.004 291.6 563.05 291.6 515.097 291.6 C 515.097 339.6 515.097 387.6 515.097 435.6 C 563.05 435.6 611.004 435.6 658.958 435.6 C 658.958 387.6 658.958 339.6 658.958 291.6 Z " fill-opacity="0.75" fill="#888888"/><path stroke-dasharray="none" id="id-52095576" d="M 810.013 291.6 C 762.059 291.6 714.105 291.6 666.151 291.6 C 666.151 339.6 666.151 387.6 666.151 435.6 C 714.105 435.6 762.059 435.6 810.013 435.6 C 810.013 387.6 810.013 339.6 810.013 291.6 Z " fill-opacity="0.875" fill="#888888"/></svg>