<svg id="smanim-canvas" xmlns="http://www.w3.org/2000/svg" viewBox="397.0431939774037 172.95839130407862 229.54610429288184 229.8621183454577"><path stroke-dasharray="none" id="id-4331404304" d="M 619.396 288.0 C 619.396 280.2 618.549 272.401 616.874 264.783 C 615.199 257.166 612.696 249.731 609.424 242.652 C 606.152 235.573 602.111 228.851 597.395 222.641 C 592.68 216.432 587.29 210.736 581.351 205.686 C 575.412 200.637 568.924 196.234 562.039 192.581 C 555.155 188.927 547.874 186.023 540.365 183.937 C 532.857 181.85 525.122 180.581 517.341 180.158 C 509.56 179.736 501.734 180.161 494.044 181.423 C 486.355 182.685 478.802 184.784 471.563 187.671 C 464.325 190.558 457.4 194.232 450.95 198.61 C 444.5 202.987 438.527 208.066 433.168 213.728 C 427.809 219.391 423.066 225.637 419.048 232.32 C 415.031 239.004 411.74 246.124 409.252 253.515 C 406.764 260.907 405.079 268.569 404.236 276.323 C 403.394 284.077 403.394 291.923 404.236 299.677 C 405.079 307.431 406.764 315.093 409.252 322.485 C 411.74 329.876 415.031 336.996 419.048 343.68 C 423.066 350.363 427.809 356.609 433.168 362.272 C 438.527 367.934 444.5 373.013 450.95 377.39 C 457.4 381.768 464.325 385.442 471.563 388.329 C 478.802 391.216 486.355 393.315 494.044 394.577 C 501.734 395.839 509.56 396.264 517.341 395.842 C 525.122 395.419 532.857 394.15 540.365 392.063 C 547.874 389.977 555.155 387.073 562.039 383.419 C 568.924 379.766 575.412 375.363 581.351 370.314 C 587.29 365.264 592.68 359.568 597.395 353.359 C 602.111 347.149 606.152 340.427 609.424 333.348 C 612.696 326.269 615.199 318.834 616.874 311.217 C 618.549 303.599 619.396 295.8 619.396 288.0 Z " fill-opacity="1.0" fill="#58C4DD"/></svg>