<svg id="smanim-canvas" xmlns="http://www.w3.org/2000/svg" viewBox="216.58367318239345 64.79999999999998 374.0402193784278 302.00391522779495"><path stroke-dasharray="none" id="id-4368006640" d="M 583.431 288.0 C 583.431 282.8 582.866 277.6 581.749 272.522 C 580.632 267.444 578.964 262.487 576.783 257.768 C 574.601 253.049 571.907 248.567 568.764 244.427 C 565.62 240.288 562.026 236.491 558.067 233.124 C 554.108 229.758 549.783 226.823 545.193 224.387 C 540.603 221.951 535.749 220.016 530.744 218.624 C 525.738 217.233 520.582 216.387 515.394 216.106 C 510.207 215.824 504.989 216.107 499.863 216.948 C 494.736 217.79 489.702 219.189 484.876 221.114 C 480.05 223.038 475.433 225.488 471.133 228.406 C 466.834 231.324 462.851 234.711 459.279 238.486 C 455.706 242.261 452.544 246.425 449.866 250.88 C 447.187 255.336 444.993 260.083 443.335 265.01 C 441.676 269.938 440.553 275.046 439.991 280.215 C 439.429 285.385 439.429 290.615 439.991 295.785 C 440.553 300.954 441.676 306.062 443.335 310.99 C 444.993 315.917 447.187 320.664 449.866 325.12 C 452.544 329.575 455.706 333.739 459.279 337.514 C 462.851 341.289 466.834 344.676 471.133 347.594 C 475.433 350.512 480.05 352.962 484.876 354.886 C 489.702 356.811 494.736 358.21 499.863 359.052 C 504.989 359.893 510.207 360.176 515.394 359.894 C 520.582 359.613 525.738 358.767 530.744 357.376 C 535.749 355.984 540.603 354.049 545.193 351.613 C 549.783 349.177 554.108 346.242 558.067 342.876 C 562.026 339.509 565.62 335.712 568.764 331.573 C 571.907 327.433 574.601 322.951 576.783 318.232 C 578.964 313.513 580.632 308.556 581.749 303.478 C 582.866 298.4 583.431 293.2 583.431 288.0 Z " fill-opacity="1.0" fill="#58C4DD"/><path stroke-dasharray="none" id="id-4366597136" d="M 367.638 72.0 C 319.685 72.0 271.731 72.0 223.777 72.0 C 223.777 120.0 223.777 168.0 223.777 216.0 C 271.731 216.0 319.685 216.0 367.638 216.0 C 367.638 168.0 367.638 120.0 367.638 72.0 Z " fill-opacity="1.0" fill="#58C4DD"/><path stroke="#FC6255" stroke-dasharray="none" stroke-opacity="1.0" stroke-width="3.337794539957364" id="id-4368445168" d="M 445.951 244.161 C 425.833 230.749 405.716 217.338 385.599 203.927" fill-opacity="none" fill="none"/><path stroke-dasharray="none" id="id-4368445024" d="M 373.625 195.944 C 376.287 200.603 378.949 205.261 381.611 209.919 C 384.27 205.924 386.928 201.929 389.586 197.934 C 384.266 197.271 378.945 196.608 373.625 195.944 Z " fill-opacity="1.0" fill="#FC6255"/></svg>