<svg id="smanim-canvas" xmlns="http://www.w3.org/2000/svg" viewBox="396.56894082727115 172.95839130407862 230.02035744301435 230.02035744301435"><path stroke="#58C4DD" stroke-dasharray="none" stroke-opacity="1.0" stroke-width="4.0" id="id-4371578352" d="M 619.396 288.0 C 619.396 282.15 618.92 276.3 617.975 270.528 C 617.029 264.755 615.614 259.059 613.748 253.515 C 611.882 247.972 609.565 242.58 606.828 237.412 C 604.09 232.243 600.932 227.298 597.395 222.641 C 593.859 217.984 589.943 213.615 585.7 209.592 C 581.457 205.57 576.887 201.892 572.05 198.61 C 567.213 195.327 562.109 192.438 556.804 189.982 C 551.5 187.526 545.997 185.502 540.365 183.937 C 534.734 182.372 528.976 181.266 523.166 180.633 C 517.356 180.001 511.494 179.842 505.659 180.158 C 499.823 180.475 494.013 181.267 488.306 182.525 C 482.598 183.783 476.993 185.505 471.563 187.671 C 466.134 189.836 460.881 192.444 455.874 195.459 C 450.866 198.475 446.104 201.899 441.649 205.686 C 437.195 209.474 433.049 213.624 429.266 218.082 C 425.482 222.541 422.061 227.308 419.048 232.32 C 416.035 237.333 413.43 242.591 411.267 248.025 C 409.104 253.459 407.383 259.07 406.126 264.783 C 404.87 270.496 404.078 276.312 403.762 282.153 C 403.446 287.994 403.604 293.861 404.236 299.677 C 404.868 305.492 405.973 311.256 407.537 316.893 C 409.1 322.53 411.122 328.039 413.576 333.348 C 416.03 338.657 418.916 343.766 422.195 348.608 C 425.475 353.45 429.149 358.025 433.168 362.272 C 437.187 366.519 441.551 370.438 446.204 373.978 C 450.857 377.518 455.797 380.679 460.961 383.419 C 466.124 386.159 471.51 388.479 477.049 390.347 C 482.587 392.214 488.277 393.631 494.044 394.577 C 499.812 395.524 505.656 396.0 511.5 396.0" fill-opacity="none" fill="none"/></svg>