<svg id="smanim-canvas" xmlns="http://www.w3.org/2000/svg" viewBox="432.3761074391787 208.8 86.31697370271414 86.31697370271411"><path stroke-dasharray="none" id="id-4331748848" d="M 439.569 288.0 C 440.868 288.0 442.167 287.965 443.463 287.894 C 444.76 287.824 446.055 287.718 447.346 287.578 C 448.637 287.437 449.925 287.262 451.206 287.052 C 452.488 286.841 453.764 286.596 455.032 286.317 C 456.301 286.037 457.561 285.723 458.813 285.376 C 460.064 285.028 461.306 284.646 462.537 284.231 C 463.768 283.816 464.987 283.367 466.194 282.886 C 467.4 282.405 468.593 281.891 469.772 281.345 C 470.951 280.8 472.115 280.222 473.262 279.613 C 474.41 279.004 475.541 278.364 476.653 277.694 C 477.766 277.024 478.861 276.323 479.936 275.594 C 481.011 274.864 482.066 274.105 483.1 273.319 C 484.134 272.532 485.146 271.717 486.136 270.876 C 487.126 270.034 488.093 269.166 489.036 268.272 C 489.979 267.378 490.898 266.458 491.791 265.514 C 492.684 264.571 493.551 263.603 494.392 262.612 C 495.233 261.621 496.047 260.607 496.833 259.573 C 497.619 258.538 498.377 257.481 499.106 256.405 C 499.834 255.329 500.534 254.234 501.204 253.12 C 501.873 252.006 502.513 250.874 503.121 249.725 C 503.729 248.577 504.307 247.412 504.852 246.232 C 505.397 245.052 505.911 243.858 506.391 242.65 C 506.872 241.442 507.32 240.222 507.735 238.99 C 508.149 237.758 508.531 236.515 508.878 235.262 C 509.226 234.009 509.539 232.747 509.818 231.478 C 510.097 230.208 510.342 228.931 510.552 227.648 C 510.763 226.365 510.938 225.077 511.078 223.785 C 511.219 222.492 511.324 221.196 511.395 219.898 C 511.465 218.6 511.5 217.3 511.5 216.0" fill-opacity="1.0" fill="#FC6255"/></svg>